<mxfile host="65bd71144e">
    <diagram id="BHLbr511Mc-nPLjF1k58" name="第3頁">
        <mxGraphModel dx="1033" dy="973" grid="1" gridSize="10" guides="1" tooltips="1" connect="1" arrows="1" fold="1" page="1" pageScale="1" pageWidth="827" pageHeight="1169" math="0" shadow="0">
            <root>
                <mxCell id="0"/>
                <mxCell id="1" parent="0"/>
                <mxCell id="-loadmY-NLmQREdpdDfp-49" value="" style="rounded=0;whiteSpace=wrap;html=1;" vertex="1" parent="1">
                    <mxGeometry x="60" y="280" width="820" height="350" as="geometry"/>
                </mxCell>
                <mxCell id="-loadmY-NLmQREdpdDfp-2" value="" style="swimlane;startSize=0;horizontal=0;childLayout=treeLayout;horizontalTree=1;sortEdges=1;resizable=0;containerType=tree;fontSize=12;" vertex="1" parent="1">
                    <mxGeometry x="80" y="300" width="780" height="310" as="geometry"/>
                </mxCell>
                <mxCell id="-loadmY-NLmQREdpdDfp-3" value="Func_A" style="whiteSpace=wrap;html=1;" vertex="1" parent="-loadmY-NLmQREdpdDfp-2">
                    <mxGeometry x="20" y="140" width="100" height="40" as="geometry"/>
                </mxCell>
                <mxCell id="-loadmY-NLmQREdpdDfp-4" value="Func_B" style="whiteSpace=wrap;html=1;" vertex="1" parent="-loadmY-NLmQREdpdDfp-2">
                    <mxGeometry x="170" y="60" width="100" height="40" as="geometry"/>
                </mxCell>
                <mxCell id="-loadmY-NLmQREdpdDfp-5" value="" style="edgeStyle=elbowEdgeStyle;elbow=horizontal;html=1;rounded=1;curved=0;sourcePerimeterSpacing=0;targetPerimeterSpacing=0;startSize=6;endSize=6;" edge="1" parent="-loadmY-NLmQREdpdDfp-2" source="-loadmY-NLmQREdpdDfp-3" target="-loadmY-NLmQREdpdDfp-4">
                    <mxGeometry relative="1" as="geometry"/>
                </mxCell>
                <mxCell id="-loadmY-NLmQREdpdDfp-6" value="&lt;span style=&quot;color: rgb(0, 0, 0);&quot;&gt;Func_F&lt;/span&gt;" style="whiteSpace=wrap;html=1;" vertex="1" parent="-loadmY-NLmQREdpdDfp-2">
                    <mxGeometry x="170" y="140" width="100" height="40" as="geometry"/>
                </mxCell>
                <mxCell id="-loadmY-NLmQREdpdDfp-7" value="" style="edgeStyle=elbowEdgeStyle;elbow=vertical;html=1;rounded=1;curved=0;sourcePerimeterSpacing=0;targetPerimeterSpacing=0;startSize=6;endSize=6;" edge="1" parent="-loadmY-NLmQREdpdDfp-2" source="-loadmY-NLmQREdpdDfp-3" target="-loadmY-NLmQREdpdDfp-6">
                    <mxGeometry relative="1" as="geometry"/>
                </mxCell>
                <mxCell id="-loadmY-NLmQREdpdDfp-21" value="" style="edgeStyle=elbowEdgeStyle;elbow=horizontal;html=1;rounded=1;curved=0;sourcePerimeterSpacing=0;targetPerimeterSpacing=0;startSize=6;endSize=6;" edge="1" target="-loadmY-NLmQREdpdDfp-22" source="-loadmY-NLmQREdpdDfp-3" parent="-loadmY-NLmQREdpdDfp-2">
                    <mxGeometry relative="1" as="geometry">
                        <mxPoint x="200" y="260" as="sourcePoint"/>
                    </mxGeometry>
                </mxCell>
                <mxCell id="-loadmY-NLmQREdpdDfp-22" value="Func_I" style="whiteSpace=wrap;html=1;" vertex="1" parent="-loadmY-NLmQREdpdDfp-2">
                    <mxGeometry x="170" y="220" width="100" height="40" as="geometry"/>
                </mxCell>
                <mxCell id="-loadmY-NLmQREdpdDfp-25" value="" style="edgeStyle=elbowEdgeStyle;elbow=horizontal;html=1;rounded=1;curved=0;sourcePerimeterSpacing=0;targetPerimeterSpacing=0;startSize=6;endSize=6;" edge="1" target="-loadmY-NLmQREdpdDfp-26" source="-loadmY-NLmQREdpdDfp-4" parent="-loadmY-NLmQREdpdDfp-2">
                    <mxGeometry relative="1" as="geometry">
                        <mxPoint x="200" y="460" as="sourcePoint"/>
                    </mxGeometry>
                </mxCell>
                <mxCell id="-loadmY-NLmQREdpdDfp-26" value="Func_C" style="whiteSpace=wrap;html=1;" vertex="1" parent="-loadmY-NLmQREdpdDfp-2">
                    <mxGeometry x="320" y="60" width="100" height="40" as="geometry"/>
                </mxCell>
                <mxCell id="-loadmY-NLmQREdpdDfp-27" value="" style="edgeStyle=elbowEdgeStyle;elbow=horizontal;html=1;rounded=1;curved=0;sourcePerimeterSpacing=0;targetPerimeterSpacing=0;startSize=6;endSize=6;" edge="1" target="-loadmY-NLmQREdpdDfp-28" source="-loadmY-NLmQREdpdDfp-26" parent="-loadmY-NLmQREdpdDfp-2">
                    <mxGeometry relative="1" as="geometry">
                        <mxPoint x="350" y="380" as="sourcePoint"/>
                    </mxGeometry>
                </mxCell>
                <mxCell id="-loadmY-NLmQREdpdDfp-28" value="Func_D" style="whiteSpace=wrap;html=1;" vertex="1" parent="-loadmY-NLmQREdpdDfp-2">
                    <mxGeometry x="470" y="60" width="100" height="40" as="geometry"/>
                </mxCell>
                <mxCell id="-loadmY-NLmQREdpdDfp-29" value="" style="edgeStyle=elbowEdgeStyle;elbow=horizontal;html=1;rounded=1;curved=0;sourcePerimeterSpacing=0;targetPerimeterSpacing=0;startSize=6;endSize=6;" edge="1" target="-loadmY-NLmQREdpdDfp-30" source="-loadmY-NLmQREdpdDfp-28" parent="-loadmY-NLmQREdpdDfp-2">
                    <mxGeometry relative="1" as="geometry">
                        <mxPoint x="500" y="380" as="sourcePoint"/>
                    </mxGeometry>
                </mxCell>
                <mxCell id="-loadmY-NLmQREdpdDfp-30" value="Func_E" style="whiteSpace=wrap;html=1;" vertex="1" parent="-loadmY-NLmQREdpdDfp-2">
                    <mxGeometry x="620" y="60" width="100" height="40" as="geometry"/>
                </mxCell>
                <mxCell id="-loadmY-NLmQREdpdDfp-31" value="" style="edgeStyle=elbowEdgeStyle;elbow=vertical;html=1;rounded=1;curved=0;sourcePerimeterSpacing=0;targetPerimeterSpacing=0;startSize=6;endSize=6;" edge="1" target="-loadmY-NLmQREdpdDfp-32" source="-loadmY-NLmQREdpdDfp-6" parent="-loadmY-NLmQREdpdDfp-2">
                    <mxGeometry relative="1" as="geometry">
                        <mxPoint x="200" y="460" as="sourcePoint"/>
                    </mxGeometry>
                </mxCell>
                <mxCell id="-loadmY-NLmQREdpdDfp-32" value="&lt;span style=&quot;color: rgb(0, 0, 0);&quot;&gt;Func_G&lt;/span&gt;" style="whiteSpace=wrap;html=1;" vertex="1" parent="-loadmY-NLmQREdpdDfp-2">
                    <mxGeometry x="320" y="140" width="100" height="40" as="geometry"/>
                </mxCell>
                <mxCell id="-loadmY-NLmQREdpdDfp-33" value="" style="edgeStyle=elbowEdgeStyle;elbow=vertical;html=1;rounded=1;curved=0;sourcePerimeterSpacing=0;targetPerimeterSpacing=0;startSize=6;endSize=6;" edge="1" target="-loadmY-NLmQREdpdDfp-34" source="-loadmY-NLmQREdpdDfp-32" parent="-loadmY-NLmQREdpdDfp-2">
                    <mxGeometry relative="1" as="geometry">
                        <mxPoint x="350" y="460" as="sourcePoint"/>
                    </mxGeometry>
                </mxCell>
                <mxCell id="-loadmY-NLmQREdpdDfp-34" value="&lt;span style=&quot;color: rgb(0, 0, 0);&quot;&gt;Func_H&lt;/span&gt;" style="whiteSpace=wrap;html=1;" vertex="1" parent="-loadmY-NLmQREdpdDfp-2">
                    <mxGeometry x="470" y="140" width="100" height="40" as="geometry"/>
                </mxCell>
                <mxCell id="-loadmY-NLmQREdpdDfp-35" value="" style="edgeStyle=elbowEdgeStyle;elbow=vertical;html=1;rounded=1;curved=0;sourcePerimeterSpacing=0;targetPerimeterSpacing=0;startSize=6;endSize=6;" edge="1" target="-loadmY-NLmQREdpdDfp-36" source="-loadmY-NLmQREdpdDfp-34" parent="-loadmY-NLmQREdpdDfp-2">
                    <mxGeometry relative="1" as="geometry">
                        <mxPoint x="500" y="460" as="sourcePoint"/>
                    </mxGeometry>
                </mxCell>
                <mxCell id="-loadmY-NLmQREdpdDfp-36" value="&lt;span style=&quot;color: rgb(0, 0, 0);&quot;&gt;Func_E&lt;/span&gt;" style="whiteSpace=wrap;html=1;" vertex="1" parent="-loadmY-NLmQREdpdDfp-2">
                    <mxGeometry x="620" y="140" width="100" height="40" as="geometry"/>
                </mxCell>
                <mxCell id="-loadmY-NLmQREdpdDfp-37" value="" style="edgeStyle=elbowEdgeStyle;elbow=horizontal;html=1;rounded=1;curved=0;sourcePerimeterSpacing=0;targetPerimeterSpacing=0;startSize=6;endSize=6;" edge="1" target="-loadmY-NLmQREdpdDfp-38" source="-loadmY-NLmQREdpdDfp-22" parent="-loadmY-NLmQREdpdDfp-2">
                    <mxGeometry relative="1" as="geometry">
                        <mxPoint x="200" y="460" as="sourcePoint"/>
                    </mxGeometry>
                </mxCell>
                <mxCell id="-loadmY-NLmQREdpdDfp-38" value="Func_G" style="whiteSpace=wrap;html=1;" vertex="1" parent="-loadmY-NLmQREdpdDfp-2">
                    <mxGeometry x="320" y="220" width="100" height="40" as="geometry"/>
                </mxCell>
                <mxCell id="-loadmY-NLmQREdpdDfp-39" value="" style="edgeStyle=elbowEdgeStyle;elbow=horizontal;html=1;rounded=1;curved=0;sourcePerimeterSpacing=0;targetPerimeterSpacing=0;startSize=6;endSize=6;" edge="1" target="-loadmY-NLmQREdpdDfp-40" source="-loadmY-NLmQREdpdDfp-38" parent="-loadmY-NLmQREdpdDfp-2">
                    <mxGeometry relative="1" as="geometry">
                        <mxPoint x="350" y="540" as="sourcePoint"/>
                    </mxGeometry>
                </mxCell>
                <mxCell id="-loadmY-NLmQREdpdDfp-40" value="Func_H" style="whiteSpace=wrap;html=1;" vertex="1" parent="-loadmY-NLmQREdpdDfp-2">
                    <mxGeometry x="470" y="220" width="100" height="40" as="geometry"/>
                </mxCell>
                <mxCell id="-loadmY-NLmQREdpdDfp-41" value="" style="edgeStyle=elbowEdgeStyle;elbow=horizontal;html=1;rounded=1;curved=0;sourcePerimeterSpacing=0;targetPerimeterSpacing=0;startSize=6;endSize=6;" edge="1" target="-loadmY-NLmQREdpdDfp-42" source="-loadmY-NLmQREdpdDfp-40" parent="-loadmY-NLmQREdpdDfp-2">
                    <mxGeometry relative="1" as="geometry">
                        <mxPoint x="500" y="540" as="sourcePoint"/>
                    </mxGeometry>
                </mxCell>
                <mxCell id="-loadmY-NLmQREdpdDfp-42" value="Func_E" style="whiteSpace=wrap;html=1;" vertex="1" parent="-loadmY-NLmQREdpdDfp-2">
                    <mxGeometry x="620" y="220" width="100" height="40" as="geometry"/>
                </mxCell>
                <mxCell id="-loadmY-NLmQREdpdDfp-45" value="" style="ellipse;whiteSpace=wrap;html=1;rotation=90;fillColor=none;strokeColor=#9999FF;strokeWidth=4;" vertex="1" parent="-loadmY-NLmQREdpdDfp-2">
                    <mxGeometry x="410" y="-40" width="190" height="470" as="geometry"/>
                </mxCell>
                <mxCell id="-loadmY-NLmQREdpdDfp-44" value="" style="ellipse;whiteSpace=wrap;html=1;rotation=90;fillColor=none;strokeColor=#FF0000;strokeWidth=4;" vertex="1" parent="-loadmY-NLmQREdpdDfp-2">
                    <mxGeometry x="590" y="50" width="160" height="140" as="geometry"/>
                </mxCell>
                <mxCell id="-loadmY-NLmQREdpdDfp-47" value="&lt;font style=&quot;font-size: 15px; color: rgb(255, 0, 0);&quot;&gt;Case_1&lt;/font&gt;" style="text;html=1;align=center;verticalAlign=middle;whiteSpace=wrap;rounded=0;" vertex="1" parent="-loadmY-NLmQREdpdDfp-2">
                    <mxGeometry x="700" y="20" width="60" height="30" as="geometry"/>
                </mxCell>
                <mxCell id="-loadmY-NLmQREdpdDfp-48" value="&lt;span style=&quot;font-size: 15px;&quot;&gt;&lt;font style=&quot;color: rgb(153, 153, 255);&quot;&gt;Case_2&lt;/font&gt;&lt;/span&gt;" style="text;html=1;align=center;verticalAlign=middle;whiteSpace=wrap;rounded=0;" vertex="1" parent="-loadmY-NLmQREdpdDfp-2">
                    <mxGeometry x="420" y="105" width="60" height="30" as="geometry"/>
                </mxCell>
            </root>
        </mxGraphModel>
    </diagram>
    <diagram id="JARd8PE7-V2Lt03fuN6Y" name="第2頁">
        <mxGraphModel dx="1900" dy="1181" grid="1" gridSize="10" guides="1" tooltips="1" connect="1" arrows="1" fold="1" page="1" pageScale="1" pageWidth="827" pageHeight="1169" math="0" shadow="0">
            <root>
                <mxCell id="0"/>
                <mxCell id="1" parent="0"/>
                <mxCell id="ulaD_Cb7u5eLzhgTvunf-1" value="" style="rounded=0;whiteSpace=wrap;html=1;" vertex="1" parent="1">
                    <mxGeometry x="280" y="820" width="1270" height="390" as="geometry"/>
                </mxCell>
                <mxCell id="ulaD_Cb7u5eLzhgTvunf-2" value="" style="shape=table;startSize=0;container=1;collapsible=0;childLayout=tableLayout;" vertex="1" parent="1">
                    <mxGeometry x="370" y="890" width="100" height="125" as="geometry"/>
                </mxCell>
                <mxCell id="ulaD_Cb7u5eLzhgTvunf-3" value="" style="shape=tableRow;horizontal=0;startSize=0;swimlaneHead=0;swimlaneBody=0;strokeColor=inherit;top=0;left=0;bottom=0;right=0;collapsible=0;dropTarget=0;fillColor=none;points=[[0,0.5],[1,0.5]];portConstraint=eastwest;" vertex="1" parent="ulaD_Cb7u5eLzhgTvunf-2">
                    <mxGeometry width="100" height="50" as="geometry"/>
                </mxCell>
                <mxCell id="ulaD_Cb7u5eLzhgTvunf-4" value="Common Code&lt;div&gt;&lt;font style=&quot;color: rgb(255, 0, 0);&quot;&gt;(Executing Func_A)&lt;/font&gt;&lt;/div&gt;" style="shape=partialRectangle;html=1;whiteSpace=wrap;connectable=0;strokeColor=inherit;overflow=hidden;fillColor=none;top=0;left=0;bottom=0;right=0;pointerEvents=1;" vertex="1" parent="ulaD_Cb7u5eLzhgTvunf-3">
                    <mxGeometry width="100" height="50" as="geometry">
                        <mxRectangle width="100" height="50" as="alternateBounds"/>
                    </mxGeometry>
                </mxCell>
                <mxCell id="ulaD_Cb7u5eLzhgTvunf-5" value="" style="shape=tableRow;horizontal=0;startSize=0;swimlaneHead=0;swimlaneBody=0;strokeColor=inherit;top=0;left=0;bottom=0;right=0;collapsible=0;dropTarget=0;fillColor=none;points=[[0,0.5],[1,0.5]];portConstraint=eastwest;" vertex="1" parent="ulaD_Cb7u5eLzhgTvunf-2">
                    <mxGeometry y="50" width="100" height="75" as="geometry"/>
                </mxCell>
                <mxCell id="ulaD_Cb7u5eLzhgTvunf-6" value="Overlay Region&lt;div&gt;(other overlay would switch to this region)&lt;/div&gt;" style="shape=partialRectangle;html=1;whiteSpace=wrap;connectable=0;strokeColor=inherit;overflow=hidden;fillColor=none;top=0;left=0;bottom=0;right=0;pointerEvents=1;" vertex="1" parent="ulaD_Cb7u5eLzhgTvunf-5">
                    <mxGeometry width="100" height="75" as="geometry">
                        <mxRectangle width="100" height="75" as="alternateBounds"/>
                    </mxGeometry>
                </mxCell>
                <mxCell id="ulaD_Cb7u5eLzhgTvunf-7" value="" style="shape=curlyBracket;whiteSpace=wrap;html=1;rounded=1;labelPosition=left;verticalLabelPosition=middle;align=right;verticalAlign=middle;" vertex="1" parent="1">
                    <mxGeometry x="340" y="895" width="20" height="120" as="geometry"/>
                </mxCell>
                <mxCell id="ulaD_Cb7u5eLzhgTvunf-8" value="ATCM" style="text;html=1;align=center;verticalAlign=middle;whiteSpace=wrap;rounded=0;" vertex="1" parent="1">
                    <mxGeometry x="290" y="940" width="60" height="30" as="geometry"/>
                </mxCell>
                <mxCell id="ulaD_Cb7u5eLzhgTvunf-9" value="If the code flow is &lt;font style=&quot;color: rgb(255, 0, 0);&quot;&gt;Func_A -&amp;gt; &lt;/font&gt;&lt;font style=&quot;color: rgb(255, 0, 0);&quot;&gt;&lt;font style=&quot;color: rgb(255, 0, 0);&quot;&gt;Func_B -&amp;gt; Func_C&lt;/font&gt; -&amp;gt; Func_B,&lt;/font&gt; where Func_A resides in Common Code, &lt;font style=&quot;color: rgb(255, 0, 0);&quot;&gt;Func_B resides in Overlay_2, Func_C resides in Overlay_2&lt;/font&gt;" style="text;html=1;align=center;verticalAlign=middle;whiteSpace=wrap;rounded=0;" vertex="1" parent="1">
                    <mxGeometry x="640" y="820" width="460" height="50" as="geometry"/>
                </mxCell>
                <mxCell id="ulaD_Cb7u5eLzhgTvunf-10" value="" style="shape=table;startSize=0;container=1;collapsible=0;childLayout=tableLayout;" vertex="1" parent="1">
                    <mxGeometry x="374" y="1050" width="96" height="130" as="geometry"/>
                </mxCell>
                <mxCell id="ulaD_Cb7u5eLzhgTvunf-11" value="" style="shape=tableRow;horizontal=0;startSize=0;swimlaneHead=0;swimlaneBody=0;strokeColor=inherit;top=0;left=0;bottom=0;right=0;collapsible=0;dropTarget=0;fillColor=none;points=[[0,0.5],[1,0.5]];portConstraint=eastwest;" vertex="1" parent="ulaD_Cb7u5eLzhgTvunf-10">
                    <mxGeometry width="96" height="40" as="geometry"/>
                </mxCell>
                <mxCell id="ulaD_Cb7u5eLzhgTvunf-12" value="Common Code&lt;div&gt;(Func_A)&lt;/div&gt;" style="shape=partialRectangle;html=1;whiteSpace=wrap;connectable=0;strokeColor=inherit;overflow=hidden;fillColor=none;top=0;left=0;bottom=0;right=0;pointerEvents=1;" vertex="1" parent="ulaD_Cb7u5eLzhgTvunf-11">
                    <mxGeometry width="96" height="40" as="geometry">
                        <mxRectangle width="96" height="40" as="alternateBounds"/>
                    </mxGeometry>
                </mxCell>
                <mxCell id="ulaD_Cb7u5eLzhgTvunf-13" value="" style="shape=tableRow;horizontal=0;startSize=0;swimlaneHead=0;swimlaneBody=0;strokeColor=inherit;top=0;left=0;bottom=0;right=0;collapsible=0;dropTarget=0;fillColor=none;points=[[0,0.5],[1,0.5]];portConstraint=eastwest;" vertex="1" parent="ulaD_Cb7u5eLzhgTvunf-10">
                    <mxGeometry y="40" width="96" height="60" as="geometry"/>
                </mxCell>
                <mxCell id="ulaD_Cb7u5eLzhgTvunf-14" value="Overlay_2&lt;div&gt;(Func_B, Func_C)&lt;/div&gt;" style="shape=partialRectangle;html=1;whiteSpace=wrap;connectable=0;strokeColor=inherit;overflow=hidden;fillColor=none;top=0;left=0;bottom=0;right=0;pointerEvents=1;" vertex="1" parent="ulaD_Cb7u5eLzhgTvunf-13">
                    <mxGeometry width="96" height="60" as="geometry">
                        <mxRectangle width="96" height="60" as="alternateBounds"/>
                    </mxGeometry>
                </mxCell>
                <mxCell id="ulaD_Cb7u5eLzhgTvunf-15" value="" style="shape=tableRow;horizontal=0;startSize=0;swimlaneHead=0;swimlaneBody=0;strokeColor=inherit;top=0;left=0;bottom=0;right=0;collapsible=0;dropTarget=0;fillColor=none;points=[[0,0.5],[1,0.5]];portConstraint=eastwest;" vertex="1" parent="ulaD_Cb7u5eLzhgTvunf-10">
                    <mxGeometry y="100" width="96" height="30" as="geometry"/>
                </mxCell>
                <mxCell id="ulaD_Cb7u5eLzhgTvunf-16" value="&lt;span style=&quot;color: rgb(0, 0, 0);&quot;&gt;Overlay_3&lt;/span&gt;" style="shape=partialRectangle;html=1;whiteSpace=wrap;connectable=0;strokeColor=inherit;overflow=hidden;fillColor=none;top=0;left=0;bottom=0;right=0;pointerEvents=1;" vertex="1" parent="ulaD_Cb7u5eLzhgTvunf-15">
                    <mxGeometry width="96" height="30" as="geometry">
                        <mxRectangle width="96" height="30" as="alternateBounds"/>
                    </mxGeometry>
                </mxCell>
                <mxCell id="ulaD_Cb7u5eLzhgTvunf-17" value="" style="shape=curlyBracket;whiteSpace=wrap;html=1;rounded=1;labelPosition=left;verticalLabelPosition=middle;align=right;verticalAlign=middle;" vertex="1" parent="1">
                    <mxGeometry x="340" y="1050" width="20" height="120" as="geometry"/>
                </mxCell>
                <mxCell id="ulaD_Cb7u5eLzhgTvunf-18" value="NAND Flash" style="text;html=1;align=center;verticalAlign=middle;whiteSpace=wrap;rounded=0;" vertex="1" parent="1">
                    <mxGeometry x="290" y="1095" width="60" height="30" as="geometry"/>
                </mxCell>
                <mxCell id="ulaD_Cb7u5eLzhgTvunf-19" value="" style="shape=flexArrow;endArrow=classic;html=1;" edge="1" parent="1">
                    <mxGeometry width="50" height="50" relative="1" as="geometry">
                        <mxPoint x="540" y="954.5" as="sourcePoint"/>
                        <mxPoint x="590" y="954.5" as="targetPoint"/>
                    </mxGeometry>
                </mxCell>
                <mxCell id="ulaD_Cb7u5eLzhgTvunf-20" value="" style="curved=1;endArrow=classic;html=1;entryX=1;entryY=0.5;entryDx=0;entryDy=0;" edge="1" parent="1" target="ulaD_Cb7u5eLzhgTvunf-3">
                    <mxGeometry width="50" height="50" relative="1" as="geometry">
                        <mxPoint x="470" y="1080" as="sourcePoint"/>
                        <mxPoint x="520" y="1030" as="targetPoint"/>
                        <Array as="points">
                            <mxPoint x="520" y="1080"/>
                            <mxPoint x="500" y="970"/>
                        </Array>
                    </mxGeometry>
                </mxCell>
                <mxCell id="ulaD_Cb7u5eLzhgTvunf-21" value="Once Common Code load onto ATCM, it would permanently stay on that region" style="text;html=1;align=center;verticalAlign=middle;whiteSpace=wrap;rounded=0;" vertex="1" parent="1">
                    <mxGeometry x="480" y="1080" width="120" height="60" as="geometry"/>
                </mxCell>
                <mxCell id="ulaD_Cb7u5eLzhgTvunf-22" value="" style="shape=table;startSize=0;container=1;collapsible=0;childLayout=tableLayout;" vertex="1" parent="1">
                    <mxGeometry x="680" y="890" width="100" height="125" as="geometry"/>
                </mxCell>
                <mxCell id="ulaD_Cb7u5eLzhgTvunf-23" value="" style="shape=tableRow;horizontal=0;startSize=0;swimlaneHead=0;swimlaneBody=0;strokeColor=inherit;top=0;left=0;bottom=0;right=0;collapsible=0;dropTarget=0;fillColor=none;points=[[0,0.5],[1,0.5]];portConstraint=eastwest;" vertex="1" parent="ulaD_Cb7u5eLzhgTvunf-22">
                    <mxGeometry width="100" height="50" as="geometry"/>
                </mxCell>
                <mxCell id="ulaD_Cb7u5eLzhgTvunf-24" value="Common Code" style="shape=partialRectangle;html=1;whiteSpace=wrap;connectable=0;strokeColor=inherit;overflow=hidden;fillColor=none;top=0;left=0;bottom=0;right=0;pointerEvents=1;" vertex="1" parent="ulaD_Cb7u5eLzhgTvunf-23">
                    <mxGeometry width="100" height="50" as="geometry">
                        <mxRectangle width="100" height="50" as="alternateBounds"/>
                    </mxGeometry>
                </mxCell>
                <mxCell id="ulaD_Cb7u5eLzhgTvunf-25" value="" style="shape=tableRow;horizontal=0;startSize=0;swimlaneHead=0;swimlaneBody=0;strokeColor=inherit;top=0;left=0;bottom=0;right=0;collapsible=0;dropTarget=0;fillColor=none;points=[[0,0.5],[1,0.5]];portConstraint=eastwest;" vertex="1" parent="ulaD_Cb7u5eLzhgTvunf-22">
                    <mxGeometry y="50" width="100" height="75" as="geometry"/>
                </mxCell>
                <mxCell id="ulaD_Cb7u5eLzhgTvunf-26" value="Overlay Region&lt;div&gt;&lt;font style=&quot;color: rgb(255, 0, 0);&quot;&gt;(Load Overlay_2 executing Func_B)&lt;/font&gt;&lt;/div&gt;" style="shape=partialRectangle;html=1;whiteSpace=wrap;connectable=0;strokeColor=inherit;overflow=hidden;fillColor=none;top=0;left=0;bottom=0;right=0;pointerEvents=1;" vertex="1" parent="ulaD_Cb7u5eLzhgTvunf-25">
                    <mxGeometry width="100" height="75" as="geometry">
                        <mxRectangle width="100" height="75" as="alternateBounds"/>
                    </mxGeometry>
                </mxCell>
                <mxCell id="ulaD_Cb7u5eLzhgTvunf-27" value="" style="shape=curlyBracket;whiteSpace=wrap;html=1;rounded=1;labelPosition=left;verticalLabelPosition=middle;align=right;verticalAlign=middle;" vertex="1" parent="1">
                    <mxGeometry x="650" y="895" width="20" height="120" as="geometry"/>
                </mxCell>
                <mxCell id="ulaD_Cb7u5eLzhgTvunf-28" value="ATCM" style="text;html=1;align=center;verticalAlign=middle;whiteSpace=wrap;rounded=0;" vertex="1" parent="1">
                    <mxGeometry x="600" y="940" width="60" height="30" as="geometry"/>
                </mxCell>
                <mxCell id="ulaD_Cb7u5eLzhgTvunf-29" value="" style="curved=1;endArrow=classic;html=1;entryX=1.02;entryY=0.413;entryDx=0;entryDy=0;entryPerimeter=0;" edge="1" parent="1" target="ulaD_Cb7u5eLzhgTvunf-25">
                    <mxGeometry width="50" height="50" relative="1" as="geometry">
                        <mxPoint x="780" y="1115" as="sourcePoint"/>
                        <mxPoint x="790" y="980" as="targetPoint"/>
                        <Array as="points">
                            <mxPoint x="830" y="1115"/>
                            <mxPoint x="810" y="1005"/>
                        </Array>
                    </mxGeometry>
                </mxCell>
                <mxCell id="ulaD_Cb7u5eLzhgTvunf-30" value="Load Overlay_2 from Nand Flash to ATCM&#39;s Overlay Region" style="text;html=1;align=center;verticalAlign=middle;whiteSpace=wrap;rounded=0;" vertex="1" parent="1">
                    <mxGeometry x="790" y="1100" width="140" height="60" as="geometry"/>
                </mxCell>
                <mxCell id="ulaD_Cb7u5eLzhgTvunf-31" value="" style="shape=table;startSize=0;container=1;collapsible=0;childLayout=tableLayout;" vertex="1" parent="1">
                    <mxGeometry x="1000" y="890" width="100" height="125" as="geometry"/>
                </mxCell>
                <mxCell id="ulaD_Cb7u5eLzhgTvunf-32" value="" style="shape=tableRow;horizontal=0;startSize=0;swimlaneHead=0;swimlaneBody=0;strokeColor=inherit;top=0;left=0;bottom=0;right=0;collapsible=0;dropTarget=0;fillColor=none;points=[[0,0.5],[1,0.5]];portConstraint=eastwest;" vertex="1" parent="ulaD_Cb7u5eLzhgTvunf-31">
                    <mxGeometry width="100" height="50" as="geometry"/>
                </mxCell>
                <mxCell id="ulaD_Cb7u5eLzhgTvunf-33" value="Common Code" style="shape=partialRectangle;html=1;whiteSpace=wrap;connectable=0;strokeColor=inherit;overflow=hidden;fillColor=none;top=0;left=0;bottom=0;right=0;pointerEvents=1;" vertex="1" parent="ulaD_Cb7u5eLzhgTvunf-32">
                    <mxGeometry width="100" height="50" as="geometry">
                        <mxRectangle width="100" height="50" as="alternateBounds"/>
                    </mxGeometry>
                </mxCell>
                <mxCell id="ulaD_Cb7u5eLzhgTvunf-34" value="" style="shape=tableRow;horizontal=0;startSize=0;swimlaneHead=0;swimlaneBody=0;strokeColor=inherit;top=0;left=0;bottom=0;right=0;collapsible=0;dropTarget=0;fillColor=none;points=[[0,0.5],[1,0.5]];portConstraint=eastwest;" vertex="1" parent="ulaD_Cb7u5eLzhgTvunf-31">
                    <mxGeometry y="50" width="100" height="75" as="geometry"/>
                </mxCell>
                <mxCell id="ulaD_Cb7u5eLzhgTvunf-35" value="Overlay Region&lt;div&gt;&lt;font style=&quot;color: rgb(255, 0, 0);&quot;&gt;(Load Overlay_2 executing Func_C)&lt;/font&gt;&lt;/div&gt;" style="shape=partialRectangle;html=1;whiteSpace=wrap;connectable=0;strokeColor=inherit;overflow=hidden;fillColor=none;top=0;left=0;bottom=0;right=0;pointerEvents=1;" vertex="1" parent="ulaD_Cb7u5eLzhgTvunf-34">
                    <mxGeometry width="100" height="75" as="geometry">
                        <mxRectangle width="100" height="75" as="alternateBounds"/>
                    </mxGeometry>
                </mxCell>
                <mxCell id="ulaD_Cb7u5eLzhgTvunf-36" value="" style="shape=curlyBracket;whiteSpace=wrap;html=1;rounded=1;labelPosition=left;verticalLabelPosition=middle;align=right;verticalAlign=middle;" vertex="1" parent="1">
                    <mxGeometry x="970" y="895" width="20" height="120" as="geometry"/>
                </mxCell>
                <mxCell id="ulaD_Cb7u5eLzhgTvunf-37" value="ATCM" style="text;html=1;align=center;verticalAlign=middle;whiteSpace=wrap;rounded=0;" vertex="1" parent="1">
                    <mxGeometry x="920" y="940" width="60" height="30" as="geometry"/>
                </mxCell>
                <mxCell id="ulaD_Cb7u5eLzhgTvunf-38" value="" style="shape=flexArrow;endArrow=classic;html=1;" edge="1" parent="1">
                    <mxGeometry width="50" height="50" relative="1" as="geometry">
                        <mxPoint x="860" y="954.5" as="sourcePoint"/>
                        <mxPoint x="910" y="954.5" as="targetPoint"/>
                    </mxGeometry>
                </mxCell>
                <mxCell id="ulaD_Cb7u5eLzhgTvunf-39" value="" style="shape=table;startSize=0;container=1;collapsible=0;childLayout=tableLayout;" vertex="1" parent="1">
                    <mxGeometry x="1310" y="890" width="100" height="125" as="geometry"/>
                </mxCell>
                <mxCell id="ulaD_Cb7u5eLzhgTvunf-40" value="" style="shape=tableRow;horizontal=0;startSize=0;swimlaneHead=0;swimlaneBody=0;strokeColor=inherit;top=0;left=0;bottom=0;right=0;collapsible=0;dropTarget=0;fillColor=none;points=[[0,0.5],[1,0.5]];portConstraint=eastwest;" vertex="1" parent="ulaD_Cb7u5eLzhgTvunf-39">
                    <mxGeometry width="100" height="50" as="geometry"/>
                </mxCell>
                <mxCell id="ulaD_Cb7u5eLzhgTvunf-41" value="Common Code" style="shape=partialRectangle;html=1;whiteSpace=wrap;connectable=0;strokeColor=inherit;overflow=hidden;fillColor=none;top=0;left=0;bottom=0;right=0;pointerEvents=1;" vertex="1" parent="ulaD_Cb7u5eLzhgTvunf-40">
                    <mxGeometry width="100" height="50" as="geometry">
                        <mxRectangle width="100" height="50" as="alternateBounds"/>
                    </mxGeometry>
                </mxCell>
                <mxCell id="ulaD_Cb7u5eLzhgTvunf-42" value="" style="shape=tableRow;horizontal=0;startSize=0;swimlaneHead=0;swimlaneBody=0;strokeColor=inherit;top=0;left=0;bottom=0;right=0;collapsible=0;dropTarget=0;fillColor=none;points=[[0,0.5],[1,0.5]];portConstraint=eastwest;" vertex="1" parent="ulaD_Cb7u5eLzhgTvunf-39">
                    <mxGeometry y="50" width="100" height="75" as="geometry"/>
                </mxCell>
                <mxCell id="ulaD_Cb7u5eLzhgTvunf-43" value="Overlay Region&lt;div&gt;&lt;font style=&quot;color: rgb(255, 0, 0);&quot;&gt;(Load Overlay_2 executing Func_B)&lt;/font&gt;&lt;/div&gt;" style="shape=partialRectangle;html=1;whiteSpace=wrap;connectable=0;strokeColor=inherit;overflow=hidden;fillColor=none;top=0;left=0;bottom=0;right=0;pointerEvents=1;" vertex="1" parent="ulaD_Cb7u5eLzhgTvunf-42">
                    <mxGeometry width="100" height="75" as="geometry">
                        <mxRectangle width="100" height="75" as="alternateBounds"/>
                    </mxGeometry>
                </mxCell>
                <mxCell id="ulaD_Cb7u5eLzhgTvunf-44" value="" style="shape=curlyBracket;whiteSpace=wrap;html=1;rounded=1;labelPosition=left;verticalLabelPosition=middle;align=right;verticalAlign=middle;" vertex="1" parent="1">
                    <mxGeometry x="1280" y="895" width="20" height="120" as="geometry"/>
                </mxCell>
                <mxCell id="ulaD_Cb7u5eLzhgTvunf-45" value="ATCM" style="text;html=1;align=center;verticalAlign=middle;whiteSpace=wrap;rounded=0;" vertex="1" parent="1">
                    <mxGeometry x="1230" y="940" width="60" height="30" as="geometry"/>
                </mxCell>
                <mxCell id="ulaD_Cb7u5eLzhgTvunf-46" value="" style="shape=flexArrow;endArrow=classic;html=1;" edge="1" parent="1">
                    <mxGeometry width="50" height="50" relative="1" as="geometry">
                        <mxPoint x="1170" y="954.5" as="sourcePoint"/>
                        <mxPoint x="1220" y="954.5" as="targetPoint"/>
                    </mxGeometry>
                </mxCell>
                <mxCell id="ulaD_Cb7u5eLzhgTvunf-47" value="" style="shape=table;startSize=0;container=1;collapsible=0;childLayout=tableLayout;" vertex="1" parent="1">
                    <mxGeometry x="684" y="1050" width="96" height="130" as="geometry"/>
                </mxCell>
                <mxCell id="ulaD_Cb7u5eLzhgTvunf-48" value="" style="shape=tableRow;horizontal=0;startSize=0;swimlaneHead=0;swimlaneBody=0;strokeColor=inherit;top=0;left=0;bottom=0;right=0;collapsible=0;dropTarget=0;fillColor=none;points=[[0,0.5],[1,0.5]];portConstraint=eastwest;" vertex="1" parent="ulaD_Cb7u5eLzhgTvunf-47">
                    <mxGeometry width="96" height="40" as="geometry"/>
                </mxCell>
                <mxCell id="ulaD_Cb7u5eLzhgTvunf-49" value="Common Code&lt;div&gt;(Func_A)&lt;/div&gt;" style="shape=partialRectangle;html=1;whiteSpace=wrap;connectable=0;strokeColor=inherit;overflow=hidden;fillColor=none;top=0;left=0;bottom=0;right=0;pointerEvents=1;" vertex="1" parent="ulaD_Cb7u5eLzhgTvunf-48">
                    <mxGeometry width="96" height="40" as="geometry">
                        <mxRectangle width="96" height="40" as="alternateBounds"/>
                    </mxGeometry>
                </mxCell>
                <mxCell id="ulaD_Cb7u5eLzhgTvunf-50" value="" style="shape=tableRow;horizontal=0;startSize=0;swimlaneHead=0;swimlaneBody=0;strokeColor=inherit;top=0;left=0;bottom=0;right=0;collapsible=0;dropTarget=0;fillColor=none;points=[[0,0.5],[1,0.5]];portConstraint=eastwest;" vertex="1" parent="ulaD_Cb7u5eLzhgTvunf-47">
                    <mxGeometry y="40" width="96" height="60" as="geometry"/>
                </mxCell>
                <mxCell id="ulaD_Cb7u5eLzhgTvunf-51" value="Overlay_2&lt;div&gt;(Func_B, Func_C)&lt;/div&gt;" style="shape=partialRectangle;html=1;whiteSpace=wrap;connectable=0;strokeColor=inherit;overflow=hidden;fillColor=none;top=0;left=0;bottom=0;right=0;pointerEvents=1;" vertex="1" parent="ulaD_Cb7u5eLzhgTvunf-50">
                    <mxGeometry width="96" height="60" as="geometry">
                        <mxRectangle width="96" height="60" as="alternateBounds"/>
                    </mxGeometry>
                </mxCell>
                <mxCell id="ulaD_Cb7u5eLzhgTvunf-52" value="" style="shape=tableRow;horizontal=0;startSize=0;swimlaneHead=0;swimlaneBody=0;strokeColor=inherit;top=0;left=0;bottom=0;right=0;collapsible=0;dropTarget=0;fillColor=none;points=[[0,0.5],[1,0.5]];portConstraint=eastwest;" vertex="1" parent="ulaD_Cb7u5eLzhgTvunf-47">
                    <mxGeometry y="100" width="96" height="30" as="geometry"/>
                </mxCell>
                <mxCell id="ulaD_Cb7u5eLzhgTvunf-53" value="&lt;span style=&quot;color: rgb(0, 0, 0);&quot;&gt;Overlay_3&lt;/span&gt;" style="shape=partialRectangle;html=1;whiteSpace=wrap;connectable=0;strokeColor=inherit;overflow=hidden;fillColor=none;top=0;left=0;bottom=0;right=0;pointerEvents=1;" vertex="1" parent="ulaD_Cb7u5eLzhgTvunf-52">
                    <mxGeometry width="96" height="30" as="geometry">
                        <mxRectangle width="96" height="30" as="alternateBounds"/>
                    </mxGeometry>
                </mxCell>
                <mxCell id="ulaD_Cb7u5eLzhgTvunf-54" value="" style="shape=curlyBracket;whiteSpace=wrap;html=1;rounded=1;labelPosition=left;verticalLabelPosition=middle;align=right;verticalAlign=middle;" vertex="1" parent="1">
                    <mxGeometry x="650" y="1050" width="20" height="120" as="geometry"/>
                </mxCell>
                <mxCell id="ulaD_Cb7u5eLzhgTvunf-55" value="NAND Flash" style="text;html=1;align=center;verticalAlign=middle;whiteSpace=wrap;rounded=0;" vertex="1" parent="1">
                    <mxGeometry x="600" y="1095" width="60" height="30" as="geometry"/>
                </mxCell>
                <mxCell id="ulaD_Cb7u5eLzhgTvunf-56" value="" style="shape=table;startSize=0;container=1;collapsible=0;childLayout=tableLayout;" vertex="1" parent="1">
                    <mxGeometry x="1004" y="1050" width="96" height="130" as="geometry"/>
                </mxCell>
                <mxCell id="ulaD_Cb7u5eLzhgTvunf-57" value="" style="shape=tableRow;horizontal=0;startSize=0;swimlaneHead=0;swimlaneBody=0;strokeColor=inherit;top=0;left=0;bottom=0;right=0;collapsible=0;dropTarget=0;fillColor=none;points=[[0,0.5],[1,0.5]];portConstraint=eastwest;" vertex="1" parent="ulaD_Cb7u5eLzhgTvunf-56">
                    <mxGeometry width="96" height="40" as="geometry"/>
                </mxCell>
                <mxCell id="ulaD_Cb7u5eLzhgTvunf-58" value="Common Code&lt;div&gt;(Func_A)&lt;/div&gt;" style="shape=partialRectangle;html=1;whiteSpace=wrap;connectable=0;strokeColor=inherit;overflow=hidden;fillColor=none;top=0;left=0;bottom=0;right=0;pointerEvents=1;" vertex="1" parent="ulaD_Cb7u5eLzhgTvunf-57">
                    <mxGeometry width="96" height="40" as="geometry">
                        <mxRectangle width="96" height="40" as="alternateBounds"/>
                    </mxGeometry>
                </mxCell>
                <mxCell id="ulaD_Cb7u5eLzhgTvunf-59" value="" style="shape=tableRow;horizontal=0;startSize=0;swimlaneHead=0;swimlaneBody=0;strokeColor=inherit;top=0;left=0;bottom=0;right=0;collapsible=0;dropTarget=0;fillColor=none;points=[[0,0.5],[1,0.5]];portConstraint=eastwest;" vertex="1" parent="ulaD_Cb7u5eLzhgTvunf-56">
                    <mxGeometry y="40" width="96" height="60" as="geometry"/>
                </mxCell>
                <mxCell id="ulaD_Cb7u5eLzhgTvunf-60" value="Overlay_2&lt;div&gt;(Func_B, Func_C)&lt;/div&gt;" style="shape=partialRectangle;html=1;whiteSpace=wrap;connectable=0;strokeColor=inherit;overflow=hidden;fillColor=none;top=0;left=0;bottom=0;right=0;pointerEvents=1;" vertex="1" parent="ulaD_Cb7u5eLzhgTvunf-59">
                    <mxGeometry width="96" height="60" as="geometry">
                        <mxRectangle width="96" height="60" as="alternateBounds"/>
                    </mxGeometry>
                </mxCell>
                <mxCell id="ulaD_Cb7u5eLzhgTvunf-61" value="" style="shape=tableRow;horizontal=0;startSize=0;swimlaneHead=0;swimlaneBody=0;strokeColor=inherit;top=0;left=0;bottom=0;right=0;collapsible=0;dropTarget=0;fillColor=none;points=[[0,0.5],[1,0.5]];portConstraint=eastwest;" vertex="1" parent="ulaD_Cb7u5eLzhgTvunf-56">
                    <mxGeometry y="100" width="96" height="30" as="geometry"/>
                </mxCell>
                <mxCell id="ulaD_Cb7u5eLzhgTvunf-62" value="&lt;span style=&quot;color: rgb(0, 0, 0);&quot;&gt;Overlay_3&lt;/span&gt;" style="shape=partialRectangle;html=1;whiteSpace=wrap;connectable=0;strokeColor=inherit;overflow=hidden;fillColor=none;top=0;left=0;bottom=0;right=0;pointerEvents=1;" vertex="1" parent="ulaD_Cb7u5eLzhgTvunf-61">
                    <mxGeometry width="96" height="30" as="geometry">
                        <mxRectangle width="96" height="30" as="alternateBounds"/>
                    </mxGeometry>
                </mxCell>
                <mxCell id="ulaD_Cb7u5eLzhgTvunf-63" value="" style="shape=curlyBracket;whiteSpace=wrap;html=1;rounded=1;labelPosition=left;verticalLabelPosition=middle;align=right;verticalAlign=middle;" vertex="1" parent="1">
                    <mxGeometry x="970" y="1050" width="20" height="120" as="geometry"/>
                </mxCell>
                <mxCell id="ulaD_Cb7u5eLzhgTvunf-64" value="NAND Flash" style="text;html=1;align=center;verticalAlign=middle;whiteSpace=wrap;rounded=0;" vertex="1" parent="1">
                    <mxGeometry x="920" y="1095" width="60" height="30" as="geometry"/>
                </mxCell>
                <mxCell id="ulaD_Cb7u5eLzhgTvunf-65" value="" style="shape=table;startSize=0;container=1;collapsible=0;childLayout=tableLayout;" vertex="1" parent="1">
                    <mxGeometry x="1314" y="1050" width="96" height="130" as="geometry"/>
                </mxCell>
                <mxCell id="ulaD_Cb7u5eLzhgTvunf-66" value="" style="shape=tableRow;horizontal=0;startSize=0;swimlaneHead=0;swimlaneBody=0;strokeColor=inherit;top=0;left=0;bottom=0;right=0;collapsible=0;dropTarget=0;fillColor=none;points=[[0,0.5],[1,0.5]];portConstraint=eastwest;" vertex="1" parent="ulaD_Cb7u5eLzhgTvunf-65">
                    <mxGeometry width="96" height="40" as="geometry"/>
                </mxCell>
                <mxCell id="ulaD_Cb7u5eLzhgTvunf-67" value="Common Code&lt;div&gt;(Func_A)&lt;/div&gt;" style="shape=partialRectangle;html=1;whiteSpace=wrap;connectable=0;strokeColor=inherit;overflow=hidden;fillColor=none;top=0;left=0;bottom=0;right=0;pointerEvents=1;" vertex="1" parent="ulaD_Cb7u5eLzhgTvunf-66">
                    <mxGeometry width="96" height="40" as="geometry">
                        <mxRectangle width="96" height="40" as="alternateBounds"/>
                    </mxGeometry>
                </mxCell>
                <mxCell id="ulaD_Cb7u5eLzhgTvunf-68" value="" style="shape=tableRow;horizontal=0;startSize=0;swimlaneHead=0;swimlaneBody=0;strokeColor=inherit;top=0;left=0;bottom=0;right=0;collapsible=0;dropTarget=0;fillColor=none;points=[[0,0.5],[1,0.5]];portConstraint=eastwest;" vertex="1" parent="ulaD_Cb7u5eLzhgTvunf-65">
                    <mxGeometry y="40" width="96" height="60" as="geometry"/>
                </mxCell>
                <mxCell id="ulaD_Cb7u5eLzhgTvunf-69" value="Overlay_2&lt;div&gt;(Func_B, Func_C)&lt;/div&gt;" style="shape=partialRectangle;html=1;whiteSpace=wrap;connectable=0;strokeColor=inherit;overflow=hidden;fillColor=none;top=0;left=0;bottom=0;right=0;pointerEvents=1;" vertex="1" parent="ulaD_Cb7u5eLzhgTvunf-68">
                    <mxGeometry width="96" height="60" as="geometry">
                        <mxRectangle width="96" height="60" as="alternateBounds"/>
                    </mxGeometry>
                </mxCell>
                <mxCell id="ulaD_Cb7u5eLzhgTvunf-70" value="" style="shape=tableRow;horizontal=0;startSize=0;swimlaneHead=0;swimlaneBody=0;strokeColor=inherit;top=0;left=0;bottom=0;right=0;collapsible=0;dropTarget=0;fillColor=none;points=[[0,0.5],[1,0.5]];portConstraint=eastwest;" vertex="1" parent="ulaD_Cb7u5eLzhgTvunf-65">
                    <mxGeometry y="100" width="96" height="30" as="geometry"/>
                </mxCell>
                <mxCell id="ulaD_Cb7u5eLzhgTvunf-71" value="&lt;span style=&quot;color: rgb(0, 0, 0);&quot;&gt;Overlay_3&lt;/span&gt;" style="shape=partialRectangle;html=1;whiteSpace=wrap;connectable=0;strokeColor=inherit;overflow=hidden;fillColor=none;top=0;left=0;bottom=0;right=0;pointerEvents=1;" vertex="1" parent="ulaD_Cb7u5eLzhgTvunf-70">
                    <mxGeometry width="96" height="30" as="geometry">
                        <mxRectangle width="96" height="30" as="alternateBounds"/>
                    </mxGeometry>
                </mxCell>
                <mxCell id="ulaD_Cb7u5eLzhgTvunf-72" value="" style="shape=curlyBracket;whiteSpace=wrap;html=1;rounded=1;labelPosition=left;verticalLabelPosition=middle;align=right;verticalAlign=middle;" vertex="1" parent="1">
                    <mxGeometry x="1280" y="1050" width="20" height="120" as="geometry"/>
                </mxCell>
                <mxCell id="ulaD_Cb7u5eLzhgTvunf-73" value="NAND Flash" style="text;html=1;align=center;verticalAlign=middle;whiteSpace=wrap;rounded=0;" vertex="1" parent="1">
                    <mxGeometry x="1230" y="1095" width="60" height="30" as="geometry"/>
                </mxCell>
                <mxCell id="ulaD_Cb7u5eLzhgTvunf-74" value="&lt;font style=&quot;color: rgb(255, 0, 0);&quot;&gt;It doesn&#39;t need to load Overlay_2 onto ATCM, since it&#39;s already reside on ATCM =&amp;gt; save additional efforts&lt;/font&gt;" style="text;html=1;align=center;verticalAlign=middle;whiteSpace=wrap;rounded=0;" vertex="1" parent="1">
                    <mxGeometry x="1100" y="1095" width="140" height="75" as="geometry"/>
                </mxCell>
                <mxCell id="ulaD_Cb7u5eLzhgTvunf-75" value="&lt;font style=&quot;color: rgb(255, 0, 0);&quot;&gt;It doesn&#39;t need to load Overlay_2 onto ATCM, since it&#39;s already reside on ATCM =&amp;gt; save additional efforts&lt;/font&gt;" style="text;html=1;align=center;verticalAlign=middle;whiteSpace=wrap;rounded=0;" vertex="1" parent="1">
                    <mxGeometry x="1410" y="1100" width="140" height="75" as="geometry"/>
                </mxCell>
            </root>
        </mxGraphModel>
    </diagram>
    <diagram id="hlbMp2S2ft_TFModSld7" name="第1頁">
        <mxGraphModel dx="2418" dy="1504" grid="1" gridSize="10" guides="1" tooltips="1" connect="1" arrows="1" fold="1" page="1" pageScale="1" pageWidth="827" pageHeight="1169" math="0" shadow="0">
            <root>
                <mxCell id="0"/>
                <mxCell id="1" parent="0"/>
                <mxCell id="372" value="" style="rounded=0;whiteSpace=wrap;html=1;" vertex="1" parent="1">
                    <mxGeometry x="270" y="300" width="1270" height="390" as="geometry"/>
                </mxCell>
                <mxCell id="237" value="" style="shape=table;startSize=0;container=1;collapsible=0;childLayout=tableLayout;" vertex="1" parent="1">
                    <mxGeometry x="350" y="380" width="100" height="125" as="geometry"/>
                </mxCell>
                <mxCell id="238" value="" style="shape=tableRow;horizontal=0;startSize=0;swimlaneHead=0;swimlaneBody=0;strokeColor=inherit;top=0;left=0;bottom=0;right=0;collapsible=0;dropTarget=0;fillColor=none;points=[[0,0.5],[1,0.5]];portConstraint=eastwest;" vertex="1" parent="237">
                    <mxGeometry width="100" height="50" as="geometry"/>
                </mxCell>
                <mxCell id="239" value="Common Code&lt;div&gt;&lt;font style=&quot;color: rgb(255, 0, 0);&quot;&gt;(Executing Func_A)&lt;/font&gt;&lt;/div&gt;" style="shape=partialRectangle;html=1;whiteSpace=wrap;connectable=0;strokeColor=inherit;overflow=hidden;fillColor=none;top=0;left=0;bottom=0;right=0;pointerEvents=1;" vertex="1" parent="238">
                    <mxGeometry width="100" height="50" as="geometry">
                        <mxRectangle width="100" height="50" as="alternateBounds"/>
                    </mxGeometry>
                </mxCell>
                <mxCell id="240" value="" style="shape=tableRow;horizontal=0;startSize=0;swimlaneHead=0;swimlaneBody=0;strokeColor=inherit;top=0;left=0;bottom=0;right=0;collapsible=0;dropTarget=0;fillColor=none;points=[[0,0.5],[1,0.5]];portConstraint=eastwest;" vertex="1" parent="237">
                    <mxGeometry y="50" width="100" height="75" as="geometry"/>
                </mxCell>
                <mxCell id="241" value="Overlay Region&lt;div&gt;(other overlay would switch to this region)&lt;/div&gt;" style="shape=partialRectangle;html=1;whiteSpace=wrap;connectable=0;strokeColor=inherit;overflow=hidden;fillColor=none;top=0;left=0;bottom=0;right=0;pointerEvents=1;" vertex="1" parent="240">
                    <mxGeometry width="100" height="75" as="geometry">
                        <mxRectangle width="100" height="75" as="alternateBounds"/>
                    </mxGeometry>
                </mxCell>
                <mxCell id="242" value="" style="shape=curlyBracket;whiteSpace=wrap;html=1;rounded=1;labelPosition=left;verticalLabelPosition=middle;align=right;verticalAlign=middle;" vertex="1" parent="1">
                    <mxGeometry x="320" y="385" width="20" height="120" as="geometry"/>
                </mxCell>
                <mxCell id="243" value="ATCM" style="text;html=1;align=center;verticalAlign=middle;whiteSpace=wrap;rounded=0;" vertex="1" parent="1">
                    <mxGeometry x="270" y="430" width="60" height="30" as="geometry"/>
                </mxCell>
                <mxCell id="244" value="If the code flow is &lt;font style=&quot;color: rgb(255, 0, 0);&quot;&gt;Func_A -&amp;gt; &lt;/font&gt;&lt;font style=&quot;color: rgb(255, 0, 0);&quot;&gt;&lt;font style=&quot;color: rgb(255, 0, 0);&quot;&gt;Func_B -&amp;gt; Func_C&lt;/font&gt; -&amp;gt; Func_B,&lt;/font&gt; where Func_A resides in Common Code, Func_B resides in Overlay_2, Func_C resides in Overlay_3" style="text;html=1;align=center;verticalAlign=middle;whiteSpace=wrap;rounded=0;" vertex="1" parent="1">
                    <mxGeometry x="620" y="310" width="460" height="50" as="geometry"/>
                </mxCell>
                <mxCell id="250" value="" style="shape=table;startSize=0;container=1;collapsible=0;childLayout=tableLayout;" vertex="1" parent="1">
                    <mxGeometry x="354" y="540" width="96" height="120" as="geometry"/>
                </mxCell>
                <mxCell id="251" value="" style="shape=tableRow;horizontal=0;startSize=0;swimlaneHead=0;swimlaneBody=0;strokeColor=inherit;top=0;left=0;bottom=0;right=0;collapsible=0;dropTarget=0;fillColor=none;points=[[0,0.5],[1,0.5]];portConstraint=eastwest;" vertex="1" parent="250">
                    <mxGeometry width="96" height="40" as="geometry"/>
                </mxCell>
                <mxCell id="252" value="Common Code&lt;div&gt;(Func_A)&lt;/div&gt;" style="shape=partialRectangle;html=1;whiteSpace=wrap;connectable=0;strokeColor=inherit;overflow=hidden;fillColor=none;top=0;left=0;bottom=0;right=0;pointerEvents=1;" vertex="1" parent="251">
                    <mxGeometry width="96" height="40" as="geometry">
                        <mxRectangle width="96" height="40" as="alternateBounds"/>
                    </mxGeometry>
                </mxCell>
                <mxCell id="253" value="" style="shape=tableRow;horizontal=0;startSize=0;swimlaneHead=0;swimlaneBody=0;strokeColor=inherit;top=0;left=0;bottom=0;right=0;collapsible=0;dropTarget=0;fillColor=none;points=[[0,0.5],[1,0.5]];portConstraint=eastwest;" vertex="1" parent="250">
                    <mxGeometry y="40" width="96" height="40" as="geometry"/>
                </mxCell>
                <mxCell id="254" value="Overlay_2&lt;div&gt;(Func_B)&lt;/div&gt;" style="shape=partialRectangle;html=1;whiteSpace=wrap;connectable=0;strokeColor=inherit;overflow=hidden;fillColor=none;top=0;left=0;bottom=0;right=0;pointerEvents=1;" vertex="1" parent="253">
                    <mxGeometry width="96" height="40" as="geometry">
                        <mxRectangle width="96" height="40" as="alternateBounds"/>
                    </mxGeometry>
                </mxCell>
                <mxCell id="255" value="" style="shape=tableRow;horizontal=0;startSize=0;swimlaneHead=0;swimlaneBody=0;strokeColor=inherit;top=0;left=0;bottom=0;right=0;collapsible=0;dropTarget=0;fillColor=none;points=[[0,0.5],[1,0.5]];portConstraint=eastwest;" vertex="1" parent="250">
                    <mxGeometry y="80" width="96" height="40" as="geometry"/>
                </mxCell>
                <mxCell id="256" value="&lt;span style=&quot;color: rgb(0, 0, 0);&quot;&gt;Overlay_3&lt;/span&gt;&lt;div&gt;&lt;span style=&quot;color: rgb(0, 0, 0);&quot;&gt;(Func_C)&lt;/span&gt;&lt;/div&gt;" style="shape=partialRectangle;html=1;whiteSpace=wrap;connectable=0;strokeColor=inherit;overflow=hidden;fillColor=none;top=0;left=0;bottom=0;right=0;pointerEvents=1;" vertex="1" parent="255">
                    <mxGeometry width="96" height="40" as="geometry">
                        <mxRectangle width="96" height="40" as="alternateBounds"/>
                    </mxGeometry>
                </mxCell>
                <mxCell id="261" value="" style="shape=curlyBracket;whiteSpace=wrap;html=1;rounded=1;labelPosition=left;verticalLabelPosition=middle;align=right;verticalAlign=middle;" vertex="1" parent="1">
                    <mxGeometry x="320" y="540" width="20" height="120" as="geometry"/>
                </mxCell>
                <mxCell id="262" value="NAND Flash" style="text;html=1;align=center;verticalAlign=middle;whiteSpace=wrap;rounded=0;" vertex="1" parent="1">
                    <mxGeometry x="270" y="585" width="60" height="30" as="geometry"/>
                </mxCell>
                <mxCell id="265" value="" style="shape=flexArrow;endArrow=classic;html=1;" edge="1" parent="1">
                    <mxGeometry width="50" height="50" relative="1" as="geometry">
                        <mxPoint x="520" y="444.5" as="sourcePoint"/>
                        <mxPoint x="570" y="444.5" as="targetPoint"/>
                    </mxGeometry>
                </mxCell>
                <mxCell id="266" value="" style="curved=1;endArrow=classic;html=1;entryX=1;entryY=0.5;entryDx=0;entryDy=0;" edge="1" parent="1" target="238">
                    <mxGeometry width="50" height="50" relative="1" as="geometry">
                        <mxPoint x="450" y="570" as="sourcePoint"/>
                        <mxPoint x="500" y="520" as="targetPoint"/>
                        <Array as="points">
                            <mxPoint x="500" y="570"/>
                            <mxPoint x="480" y="460"/>
                        </Array>
                    </mxGeometry>
                </mxCell>
                <mxCell id="267" value="Once Common Code load onto ATCM, it would permanently stay on that region" style="text;html=1;align=center;verticalAlign=middle;whiteSpace=wrap;rounded=0;" vertex="1" parent="1">
                    <mxGeometry x="460" y="570" width="120" height="60" as="geometry"/>
                </mxCell>
                <mxCell id="282" value="" style="shape=table;startSize=0;container=1;collapsible=0;childLayout=tableLayout;" vertex="1" parent="1">
                    <mxGeometry x="660" y="380" width="100" height="125" as="geometry"/>
                </mxCell>
                <mxCell id="283" value="" style="shape=tableRow;horizontal=0;startSize=0;swimlaneHead=0;swimlaneBody=0;strokeColor=inherit;top=0;left=0;bottom=0;right=0;collapsible=0;dropTarget=0;fillColor=none;points=[[0,0.5],[1,0.5]];portConstraint=eastwest;" vertex="1" parent="282">
                    <mxGeometry width="100" height="50" as="geometry"/>
                </mxCell>
                <mxCell id="284" value="Common Code" style="shape=partialRectangle;html=1;whiteSpace=wrap;connectable=0;strokeColor=inherit;overflow=hidden;fillColor=none;top=0;left=0;bottom=0;right=0;pointerEvents=1;" vertex="1" parent="283">
                    <mxGeometry width="100" height="50" as="geometry">
                        <mxRectangle width="100" height="50" as="alternateBounds"/>
                    </mxGeometry>
                </mxCell>
                <mxCell id="285" value="" style="shape=tableRow;horizontal=0;startSize=0;swimlaneHead=0;swimlaneBody=0;strokeColor=inherit;top=0;left=0;bottom=0;right=0;collapsible=0;dropTarget=0;fillColor=none;points=[[0,0.5],[1,0.5]];portConstraint=eastwest;" vertex="1" parent="282">
                    <mxGeometry y="50" width="100" height="75" as="geometry"/>
                </mxCell>
                <mxCell id="286" value="Overlay Region&lt;div&gt;&lt;font style=&quot;color: rgb(255, 0, 0);&quot;&gt;(Load Overlay_2 executing Func_B)&lt;/font&gt;&lt;/div&gt;" style="shape=partialRectangle;html=1;whiteSpace=wrap;connectable=0;strokeColor=inherit;overflow=hidden;fillColor=none;top=0;left=0;bottom=0;right=0;pointerEvents=1;" vertex="1" parent="285">
                    <mxGeometry width="100" height="75" as="geometry">
                        <mxRectangle width="100" height="75" as="alternateBounds"/>
                    </mxGeometry>
                </mxCell>
                <mxCell id="287" value="" style="shape=curlyBracket;whiteSpace=wrap;html=1;rounded=1;labelPosition=left;verticalLabelPosition=middle;align=right;verticalAlign=middle;" vertex="1" parent="1">
                    <mxGeometry x="630" y="385" width="20" height="120" as="geometry"/>
                </mxCell>
                <mxCell id="288" value="ATCM" style="text;html=1;align=center;verticalAlign=middle;whiteSpace=wrap;rounded=0;" vertex="1" parent="1">
                    <mxGeometry x="580" y="430" width="60" height="30" as="geometry"/>
                </mxCell>
                <mxCell id="289" value="" style="shape=table;startSize=0;container=1;collapsible=0;childLayout=tableLayout;" vertex="1" parent="1">
                    <mxGeometry x="664" y="540" width="96" height="120" as="geometry"/>
                </mxCell>
                <mxCell id="290" value="" style="shape=tableRow;horizontal=0;startSize=0;swimlaneHead=0;swimlaneBody=0;strokeColor=inherit;top=0;left=0;bottom=0;right=0;collapsible=0;dropTarget=0;fillColor=none;points=[[0,0.5],[1,0.5]];portConstraint=eastwest;" vertex="1" parent="289">
                    <mxGeometry width="96" height="40" as="geometry"/>
                </mxCell>
                <mxCell id="291" value="Common Code&lt;div&gt;(Func_A)&lt;/div&gt;" style="shape=partialRectangle;html=1;whiteSpace=wrap;connectable=0;strokeColor=inherit;overflow=hidden;fillColor=none;top=0;left=0;bottom=0;right=0;pointerEvents=1;" vertex="1" parent="290">
                    <mxGeometry width="96" height="40" as="geometry">
                        <mxRectangle width="96" height="40" as="alternateBounds"/>
                    </mxGeometry>
                </mxCell>
                <mxCell id="292" value="" style="shape=tableRow;horizontal=0;startSize=0;swimlaneHead=0;swimlaneBody=0;strokeColor=inherit;top=0;left=0;bottom=0;right=0;collapsible=0;dropTarget=0;fillColor=none;points=[[0,0.5],[1,0.5]];portConstraint=eastwest;" vertex="1" parent="289">
                    <mxGeometry y="40" width="96" height="40" as="geometry"/>
                </mxCell>
                <mxCell id="293" value="Overlay_2&lt;div&gt;(Func_B)&lt;/div&gt;" style="shape=partialRectangle;html=1;whiteSpace=wrap;connectable=0;strokeColor=inherit;overflow=hidden;fillColor=none;top=0;left=0;bottom=0;right=0;pointerEvents=1;" vertex="1" parent="292">
                    <mxGeometry width="96" height="40" as="geometry">
                        <mxRectangle width="96" height="40" as="alternateBounds"/>
                    </mxGeometry>
                </mxCell>
                <mxCell id="294" value="" style="shape=tableRow;horizontal=0;startSize=0;swimlaneHead=0;swimlaneBody=0;strokeColor=inherit;top=0;left=0;bottom=0;right=0;collapsible=0;dropTarget=0;fillColor=none;points=[[0,0.5],[1,0.5]];portConstraint=eastwest;" vertex="1" parent="289">
                    <mxGeometry y="80" width="96" height="40" as="geometry"/>
                </mxCell>
                <mxCell id="295" value="&lt;span style=&quot;color: rgb(0, 0, 0);&quot;&gt;Overlay_3&lt;/span&gt;&lt;div&gt;&lt;span style=&quot;color: rgb(0, 0, 0);&quot;&gt;(Func_C)&lt;/span&gt;&lt;/div&gt;" style="shape=partialRectangle;html=1;whiteSpace=wrap;connectable=0;strokeColor=inherit;overflow=hidden;fillColor=none;top=0;left=0;bottom=0;right=0;pointerEvents=1;" vertex="1" parent="294">
                    <mxGeometry width="96" height="40" as="geometry">
                        <mxRectangle width="96" height="40" as="alternateBounds"/>
                    </mxGeometry>
                </mxCell>
                <mxCell id="296" value="" style="shape=curlyBracket;whiteSpace=wrap;html=1;rounded=1;labelPosition=left;verticalLabelPosition=middle;align=right;verticalAlign=middle;" vertex="1" parent="1">
                    <mxGeometry x="630" y="540" width="20" height="120" as="geometry"/>
                </mxCell>
                <mxCell id="297" value="NAND Flash" style="text;html=1;align=center;verticalAlign=middle;whiteSpace=wrap;rounded=0;" vertex="1" parent="1">
                    <mxGeometry x="580" y="585" width="60" height="30" as="geometry"/>
                </mxCell>
                <mxCell id="298" value="" style="curved=1;endArrow=classic;html=1;entryX=1.02;entryY=0.413;entryDx=0;entryDy=0;entryPerimeter=0;" edge="1" parent="1" target="285">
                    <mxGeometry width="50" height="50" relative="1" as="geometry">
                        <mxPoint x="760" y="605" as="sourcePoint"/>
                        <mxPoint x="770" y="470" as="targetPoint"/>
                        <Array as="points">
                            <mxPoint x="810" y="605"/>
                            <mxPoint x="790" y="495"/>
                        </Array>
                    </mxGeometry>
                </mxCell>
                <mxCell id="299" value="Load Overlay_2 from Nand Flash to ATCM&#39;s Overlay Region" style="text;html=1;align=center;verticalAlign=middle;whiteSpace=wrap;rounded=0;" vertex="1" parent="1">
                    <mxGeometry x="770" y="590" width="140" height="60" as="geometry"/>
                </mxCell>
                <mxCell id="315" value="" style="shape=table;startSize=0;container=1;collapsible=0;childLayout=tableLayout;" vertex="1" parent="1">
                    <mxGeometry x="980" y="380" width="100" height="125" as="geometry"/>
                </mxCell>
                <mxCell id="316" value="" style="shape=tableRow;horizontal=0;startSize=0;swimlaneHead=0;swimlaneBody=0;strokeColor=inherit;top=0;left=0;bottom=0;right=0;collapsible=0;dropTarget=0;fillColor=none;points=[[0,0.5],[1,0.5]];portConstraint=eastwest;" vertex="1" parent="315">
                    <mxGeometry width="100" height="50" as="geometry"/>
                </mxCell>
                <mxCell id="317" value="Common Code" style="shape=partialRectangle;html=1;whiteSpace=wrap;connectable=0;strokeColor=inherit;overflow=hidden;fillColor=none;top=0;left=0;bottom=0;right=0;pointerEvents=1;" vertex="1" parent="316">
                    <mxGeometry width="100" height="50" as="geometry">
                        <mxRectangle width="100" height="50" as="alternateBounds"/>
                    </mxGeometry>
                </mxCell>
                <mxCell id="318" value="" style="shape=tableRow;horizontal=0;startSize=0;swimlaneHead=0;swimlaneBody=0;strokeColor=inherit;top=0;left=0;bottom=0;right=0;collapsible=0;dropTarget=0;fillColor=none;points=[[0,0.5],[1,0.5]];portConstraint=eastwest;" vertex="1" parent="315">
                    <mxGeometry y="50" width="100" height="75" as="geometry"/>
                </mxCell>
                <mxCell id="319" value="Overlay Region&lt;div&gt;&lt;font style=&quot;color: rgb(255, 0, 0);&quot;&gt;(Load Overlay_3 executing Func_C)&lt;/font&gt;&lt;/div&gt;" style="shape=partialRectangle;html=1;whiteSpace=wrap;connectable=0;strokeColor=inherit;overflow=hidden;fillColor=none;top=0;left=0;bottom=0;right=0;pointerEvents=1;" vertex="1" parent="318">
                    <mxGeometry width="100" height="75" as="geometry">
                        <mxRectangle width="100" height="75" as="alternateBounds"/>
                    </mxGeometry>
                </mxCell>
                <mxCell id="320" value="" style="shape=curlyBracket;whiteSpace=wrap;html=1;rounded=1;labelPosition=left;verticalLabelPosition=middle;align=right;verticalAlign=middle;" vertex="1" parent="1">
                    <mxGeometry x="950" y="385" width="20" height="120" as="geometry"/>
                </mxCell>
                <mxCell id="321" value="ATCM" style="text;html=1;align=center;verticalAlign=middle;whiteSpace=wrap;rounded=0;" vertex="1" parent="1">
                    <mxGeometry x="900" y="430" width="60" height="30" as="geometry"/>
                </mxCell>
                <mxCell id="322" value="" style="shape=table;startSize=0;container=1;collapsible=0;childLayout=tableLayout;" vertex="1" parent="1">
                    <mxGeometry x="984" y="540" width="96" height="120" as="geometry"/>
                </mxCell>
                <mxCell id="323" value="" style="shape=tableRow;horizontal=0;startSize=0;swimlaneHead=0;swimlaneBody=0;strokeColor=inherit;top=0;left=0;bottom=0;right=0;collapsible=0;dropTarget=0;fillColor=none;points=[[0,0.5],[1,0.5]];portConstraint=eastwest;" vertex="1" parent="322">
                    <mxGeometry width="96" height="40" as="geometry"/>
                </mxCell>
                <mxCell id="324" value="Common Code&lt;div&gt;(Func_A)&lt;/div&gt;" style="shape=partialRectangle;html=1;whiteSpace=wrap;connectable=0;strokeColor=inherit;overflow=hidden;fillColor=none;top=0;left=0;bottom=0;right=0;pointerEvents=1;" vertex="1" parent="323">
                    <mxGeometry width="96" height="40" as="geometry">
                        <mxRectangle width="96" height="40" as="alternateBounds"/>
                    </mxGeometry>
                </mxCell>
                <mxCell id="325" value="" style="shape=tableRow;horizontal=0;startSize=0;swimlaneHead=0;swimlaneBody=0;strokeColor=inherit;top=0;left=0;bottom=0;right=0;collapsible=0;dropTarget=0;fillColor=none;points=[[0,0.5],[1,0.5]];portConstraint=eastwest;" vertex="1" parent="322">
                    <mxGeometry y="40" width="96" height="40" as="geometry"/>
                </mxCell>
                <mxCell id="326" value="Overlay_2&lt;div&gt;(Func_B)&lt;/div&gt;" style="shape=partialRectangle;html=1;whiteSpace=wrap;connectable=0;strokeColor=inherit;overflow=hidden;fillColor=none;top=0;left=0;bottom=0;right=0;pointerEvents=1;" vertex="1" parent="325">
                    <mxGeometry width="96" height="40" as="geometry">
                        <mxRectangle width="96" height="40" as="alternateBounds"/>
                    </mxGeometry>
                </mxCell>
                <mxCell id="327" value="" style="shape=tableRow;horizontal=0;startSize=0;swimlaneHead=0;swimlaneBody=0;strokeColor=inherit;top=0;left=0;bottom=0;right=0;collapsible=0;dropTarget=0;fillColor=none;points=[[0,0.5],[1,0.5]];portConstraint=eastwest;" vertex="1" parent="322">
                    <mxGeometry y="80" width="96" height="40" as="geometry"/>
                </mxCell>
                <mxCell id="328" value="&lt;span style=&quot;color: rgb(0, 0, 0);&quot;&gt;Overlay_3&lt;/span&gt;&lt;div&gt;&lt;span style=&quot;color: rgb(0, 0, 0);&quot;&gt;(Func_C)&lt;/span&gt;&lt;/div&gt;" style="shape=partialRectangle;html=1;whiteSpace=wrap;connectable=0;strokeColor=inherit;overflow=hidden;fillColor=none;top=0;left=0;bottom=0;right=0;pointerEvents=1;" vertex="1" parent="327">
                    <mxGeometry width="96" height="40" as="geometry">
                        <mxRectangle width="96" height="40" as="alternateBounds"/>
                    </mxGeometry>
                </mxCell>
                <mxCell id="329" value="" style="shape=curlyBracket;whiteSpace=wrap;html=1;rounded=1;labelPosition=left;verticalLabelPosition=middle;align=right;verticalAlign=middle;" vertex="1" parent="1">
                    <mxGeometry x="950" y="540" width="20" height="120" as="geometry"/>
                </mxCell>
                <mxCell id="330" value="NAND Flash" style="text;html=1;align=center;verticalAlign=middle;whiteSpace=wrap;rounded=0;" vertex="1" parent="1">
                    <mxGeometry x="900" y="585" width="60" height="30" as="geometry"/>
                </mxCell>
                <mxCell id="331" value="" style="shape=flexArrow;endArrow=classic;html=1;" edge="1" parent="1">
                    <mxGeometry width="50" height="50" relative="1" as="geometry">
                        <mxPoint x="840" y="444.5" as="sourcePoint"/>
                        <mxPoint x="890" y="444.5" as="targetPoint"/>
                    </mxGeometry>
                </mxCell>
                <mxCell id="332" value="" style="curved=1;endArrow=classic;html=1;entryX=1.02;entryY=0.413;entryDx=0;entryDy=0;entryPerimeter=0;" edge="1" parent="1">
                    <mxGeometry width="50" height="50" relative="1" as="geometry">
                        <mxPoint x="1080" y="634" as="sourcePoint"/>
                        <mxPoint x="1082" y="490" as="targetPoint"/>
                        <Array as="points">
                            <mxPoint x="1130" y="634"/>
                            <mxPoint x="1110" y="524"/>
                        </Array>
                    </mxGeometry>
                </mxCell>
                <mxCell id="333" value="Load Overlay_3 from Nand Flash to ATCM&#39;s Overlay Region" style="text;html=1;align=center;verticalAlign=middle;whiteSpace=wrap;rounded=0;" vertex="1" parent="1">
                    <mxGeometry x="1090" y="619" width="140" height="60" as="geometry"/>
                </mxCell>
                <mxCell id="352" value="" style="shape=table;startSize=0;container=1;collapsible=0;childLayout=tableLayout;" vertex="1" parent="1">
                    <mxGeometry x="1290" y="380" width="100" height="125" as="geometry"/>
                </mxCell>
                <mxCell id="353" value="" style="shape=tableRow;horizontal=0;startSize=0;swimlaneHead=0;swimlaneBody=0;strokeColor=inherit;top=0;left=0;bottom=0;right=0;collapsible=0;dropTarget=0;fillColor=none;points=[[0,0.5],[1,0.5]];portConstraint=eastwest;" vertex="1" parent="352">
                    <mxGeometry width="100" height="50" as="geometry"/>
                </mxCell>
                <mxCell id="354" value="Common Code" style="shape=partialRectangle;html=1;whiteSpace=wrap;connectable=0;strokeColor=inherit;overflow=hidden;fillColor=none;top=0;left=0;bottom=0;right=0;pointerEvents=1;" vertex="1" parent="353">
                    <mxGeometry width="100" height="50" as="geometry">
                        <mxRectangle width="100" height="50" as="alternateBounds"/>
                    </mxGeometry>
                </mxCell>
                <mxCell id="355" value="" style="shape=tableRow;horizontal=0;startSize=0;swimlaneHead=0;swimlaneBody=0;strokeColor=inherit;top=0;left=0;bottom=0;right=0;collapsible=0;dropTarget=0;fillColor=none;points=[[0,0.5],[1,0.5]];portConstraint=eastwest;" vertex="1" parent="352">
                    <mxGeometry y="50" width="100" height="75" as="geometry"/>
                </mxCell>
                <mxCell id="356" value="Overlay Region&lt;div&gt;&lt;font style=&quot;color: rgb(255, 0, 0);&quot;&gt;(Load Overlay_2 executing Func_B)&lt;/font&gt;&lt;/div&gt;" style="shape=partialRectangle;html=1;whiteSpace=wrap;connectable=0;strokeColor=inherit;overflow=hidden;fillColor=none;top=0;left=0;bottom=0;right=0;pointerEvents=1;" vertex="1" parent="355">
                    <mxGeometry width="100" height="75" as="geometry">
                        <mxRectangle width="100" height="75" as="alternateBounds"/>
                    </mxGeometry>
                </mxCell>
                <mxCell id="357" value="" style="shape=curlyBracket;whiteSpace=wrap;html=1;rounded=1;labelPosition=left;verticalLabelPosition=middle;align=right;verticalAlign=middle;" vertex="1" parent="1">
                    <mxGeometry x="1260" y="385" width="20" height="120" as="geometry"/>
                </mxCell>
                <mxCell id="358" value="ATCM" style="text;html=1;align=center;verticalAlign=middle;whiteSpace=wrap;rounded=0;" vertex="1" parent="1">
                    <mxGeometry x="1210" y="430" width="60" height="30" as="geometry"/>
                </mxCell>
                <mxCell id="359" value="" style="shape=table;startSize=0;container=1;collapsible=0;childLayout=tableLayout;" vertex="1" parent="1">
                    <mxGeometry x="1294" y="540" width="96" height="120" as="geometry"/>
                </mxCell>
                <mxCell id="360" value="" style="shape=tableRow;horizontal=0;startSize=0;swimlaneHead=0;swimlaneBody=0;strokeColor=inherit;top=0;left=0;bottom=0;right=0;collapsible=0;dropTarget=0;fillColor=none;points=[[0,0.5],[1,0.5]];portConstraint=eastwest;" vertex="1" parent="359">
                    <mxGeometry width="96" height="40" as="geometry"/>
                </mxCell>
                <mxCell id="361" value="Common Code&lt;div&gt;(Func_A)&lt;/div&gt;" style="shape=partialRectangle;html=1;whiteSpace=wrap;connectable=0;strokeColor=inherit;overflow=hidden;fillColor=none;top=0;left=0;bottom=0;right=0;pointerEvents=1;" vertex="1" parent="360">
                    <mxGeometry width="96" height="40" as="geometry">
                        <mxRectangle width="96" height="40" as="alternateBounds"/>
                    </mxGeometry>
                </mxCell>
                <mxCell id="362" value="" style="shape=tableRow;horizontal=0;startSize=0;swimlaneHead=0;swimlaneBody=0;strokeColor=inherit;top=0;left=0;bottom=0;right=0;collapsible=0;dropTarget=0;fillColor=none;points=[[0,0.5],[1,0.5]];portConstraint=eastwest;" vertex="1" parent="359">
                    <mxGeometry y="40" width="96" height="40" as="geometry"/>
                </mxCell>
                <mxCell id="363" value="Overlay_2&lt;div&gt;(Func_B)&lt;/div&gt;" style="shape=partialRectangle;html=1;whiteSpace=wrap;connectable=0;strokeColor=inherit;overflow=hidden;fillColor=none;top=0;left=0;bottom=0;right=0;pointerEvents=1;" vertex="1" parent="362">
                    <mxGeometry width="96" height="40" as="geometry">
                        <mxRectangle width="96" height="40" as="alternateBounds"/>
                    </mxGeometry>
                </mxCell>
                <mxCell id="364" value="" style="shape=tableRow;horizontal=0;startSize=0;swimlaneHead=0;swimlaneBody=0;strokeColor=inherit;top=0;left=0;bottom=0;right=0;collapsible=0;dropTarget=0;fillColor=none;points=[[0,0.5],[1,0.5]];portConstraint=eastwest;" vertex="1" parent="359">
                    <mxGeometry y="80" width="96" height="40" as="geometry"/>
                </mxCell>
                <mxCell id="365" value="&lt;span style=&quot;color: rgb(0, 0, 0);&quot;&gt;Overlay_3&lt;/span&gt;&lt;div&gt;&lt;span style=&quot;color: rgb(0, 0, 0);&quot;&gt;(Func_C)&lt;/span&gt;&lt;/div&gt;" style="shape=partialRectangle;html=1;whiteSpace=wrap;connectable=0;strokeColor=inherit;overflow=hidden;fillColor=none;top=0;left=0;bottom=0;right=0;pointerEvents=1;" vertex="1" parent="364">
                    <mxGeometry width="96" height="40" as="geometry">
                        <mxRectangle width="96" height="40" as="alternateBounds"/>
                    </mxGeometry>
                </mxCell>
                <mxCell id="366" value="" style="shape=curlyBracket;whiteSpace=wrap;html=1;rounded=1;labelPosition=left;verticalLabelPosition=middle;align=right;verticalAlign=middle;" vertex="1" parent="1">
                    <mxGeometry x="1260" y="540" width="20" height="120" as="geometry"/>
                </mxCell>
                <mxCell id="367" value="NAND Flash" style="text;html=1;align=center;verticalAlign=middle;whiteSpace=wrap;rounded=0;" vertex="1" parent="1">
                    <mxGeometry x="1210" y="585" width="60" height="30" as="geometry"/>
                </mxCell>
                <mxCell id="368" value="" style="curved=1;endArrow=classic;html=1;entryX=1.02;entryY=0.413;entryDx=0;entryDy=0;entryPerimeter=0;" edge="1" parent="1" target="355">
                    <mxGeometry width="50" height="50" relative="1" as="geometry">
                        <mxPoint x="1390" y="605" as="sourcePoint"/>
                        <mxPoint x="1400" y="470" as="targetPoint"/>
                        <Array as="points">
                            <mxPoint x="1440" y="605"/>
                            <mxPoint x="1420" y="495"/>
                        </Array>
                    </mxGeometry>
                </mxCell>
                <mxCell id="369" value="Load Overlay_2 from Nand Flash to ATCM&#39;s Overlay Region" style="text;html=1;align=center;verticalAlign=middle;whiteSpace=wrap;rounded=0;" vertex="1" parent="1">
                    <mxGeometry x="1400" y="590" width="140" height="60" as="geometry"/>
                </mxCell>
                <mxCell id="371" value="" style="shape=flexArrow;endArrow=classic;html=1;" edge="1" parent="1">
                    <mxGeometry width="50" height="50" relative="1" as="geometry">
                        <mxPoint x="1150" y="444.5" as="sourcePoint"/>
                        <mxPoint x="1200" y="444.5" as="targetPoint"/>
                    </mxGeometry>
                </mxCell>
            </root>
        </mxGraphModel>
    </diagram>
</mxfile>